<svg width="283" height="277" viewBox="0 0 283 277" fill="none" xmlns="http://www.w3.org/2000/svg">
<path d="M92.5 261.5C43.3467 261.5 3.50001 221.653 3.50001 172.5C3.50001 123.347 43.3467 83.5 92.5 83.5C141.653 83.5 181.5 123.347 181.5 172.5C181.5 221.653 141.653 261.5 92.5 261.5Z" stroke="#6246E5"/>
<path d="M102 265.5C47.05 265.5 2.50001 220.731 2.50001 165.5C2.50001 110.269 47.05 65.5 102 65.5C156.95 65.5 201.5 110.269 201.5 165.5C201.5 220.731 156.95 265.5 102 265.5Z" stroke="#6246E5"/>
<path d="M109.5 269.5C49.3052 269.5 0.500008 220.256 0.50001 159.5C0.500013 98.7444 49.3053 49.5 109.5 49.5C169.695 49.5 218.5 98.7444 218.5 159.5C218.5 220.256 169.695 269.5 109.5 269.5Z" stroke="#6246E5"/>
<path d="M121 270.5C56.1065 270.5 3.50001 217.893 3.50001 153C3.50001 88.1065 56.1066 35.5 121 35.5C185.893 35.5 238.5 88.1065 238.5 153C238.5 217.893 185.893 270.5 121 270.5Z" stroke="#6246E5"/>
<path d="M131.5 273.5C62.4681 273.5 6.50001 217.092 6.50001 147.5C6.50001 77.9084 62.4682 21.5 131.5 21.5C200.532 21.5 256.5 77.9084 256.5 147.5C256.5 217.092 200.532 273.5 131.5 273.5Z" stroke="#6246E5"/>
<circle cx="144.5" cy="138.5" r="138" transform="rotate(90 144.5 138.5)" stroke="#6246E5"/>
</svg>
